<mxfile host="app.diagrams.net" modified="2024-05-28T12:49:15.454Z" agent="Mozilla/5.0 (Windows NT 10.0; Win64; x64) AppleWebKit/537.36 (KHTML, like Gecko) Chrome/125.0.0.0 Safari/537.36" etag="z3-BIowacP7GDka3VB9b" version="24.4.9" type="github">
  <diagram name="Page-1" id="byRGT8MVhsRmW753Sufy">
    <mxGraphModel dx="1434" dy="738" grid="1" gridSize="10" guides="1" tooltips="1" connect="1" arrows="1" fold="1" page="1" pageScale="1" pageWidth="850" pageHeight="1100" math="0" shadow="0">
      <root>
        <mxCell id="0" />
        <mxCell id="1" parent="0" />
        <mxCell id="O6B_Q7qgac8eni3kH0HL-9" value="" style="rounded=0;whiteSpace=wrap;html=1;" vertex="1" parent="1">
          <mxGeometry x="70" y="40" width="760" height="550" as="geometry" />
        </mxCell>
        <mxCell id="O6B_Q7qgac8eni3kH0HL-1" value="AD SSO" style="image;aspect=fixed;html=1;points=[];align=center;fontSize=12;image=img/lib/azure2/identity/Azure_Active_Directory.svg;" vertex="1" parent="1">
          <mxGeometry x="80" y="170" width="70" height="64" as="geometry" />
        </mxCell>
        <mxCell id="O6B_Q7qgac8eni3kH0HL-2" value="Service Bus" style="image;aspect=fixed;html=1;points=[];align=center;fontSize=12;image=img/lib/azure2/general/Service_Bus.svg;" vertex="1" parent="1">
          <mxGeometry x="760" y="100" width="70" height="60" as="geometry" />
        </mxCell>
        <mxCell id="O6B_Q7qgac8eni3kH0HL-3" value="Administration Portal" style="image;aspect=fixed;html=1;points=[];align=center;fontSize=12;image=img/lib/azure2/compute/App_Services.svg;" vertex="1" parent="1">
          <mxGeometry x="290" y="170" width="64" height="64" as="geometry" />
        </mxCell>
        <mxCell id="O6B_Q7qgac8eni3kH0HL-5" value="" style="image;sketch=0;aspect=fixed;html=1;points=[];align=center;fontSize=12;image=img/lib/mscae/Load_Balancer_feature.svg;" vertex="1" parent="1">
          <mxGeometry x="150" y="350" width="50" height="50" as="geometry" />
        </mxCell>
        <mxCell id="O6B_Q7qgac8eni3kH0HL-6" value="Employee Portal" style="image;aspect=fixed;html=1;points=[];align=center;fontSize=12;image=img/lib/azure2/compute/App_Services.svg;" vertex="1" parent="1">
          <mxGeometry x="640" y="180" width="64" height="64" as="geometry" />
        </mxCell>
        <mxCell id="O6B_Q7qgac8eni3kH0HL-7" value="Suppliers Portal" style="image;aspect=fixed;html=1;points=[];align=center;fontSize=12;image=img/lib/azure2/compute/App_Services.svg;" vertex="1" parent="1">
          <mxGeometry x="460" y="170" width="64" height="64" as="geometry" />
        </mxCell>
        <mxCell id="O6B_Q7qgac8eni3kH0HL-10" value="Azure Cloud" style="text;html=1;align=center;verticalAlign=middle;whiteSpace=wrap;rounded=0;" vertex="1" parent="1">
          <mxGeometry x="70" y="40" width="60" height="30" as="geometry" />
        </mxCell>
      </root>
    </mxGraphModel>
  </diagram>
</mxfile>
